<svg xmlns="http://www.w3.org/2000/svg" width="256" height="256" viewBox="0 0 100 100"><rect width="100" height="100" rx="50" fill="#2b2b2b"></rect><path d="M19.52 76L19.52 76Q16.08 76 14.08 74Q12.08 72 12.08 68.56L12.08 68.56L12.08 27.12Q13.04 26.96 14.88 26.68Q16.72 26.40 18.56 26.40L18.56 26.40Q22.56 26.40 24.32 27.76Q26.08 29.12 26.08 33.04L26.08 33.04L26.08 64.72L44.40 64.72Q44.96 65.60 45.44 67.04Q45.92 68.48 45.92 70.16L45.92 70.16Q45.92 73.12 44.64 74.56Q43.36 76 41.12 76L41.12 76L19.52 76ZM60 76.40L60 76.40Q56 76.40 54.24 75.08Q52.48 73.76 52.48 70L52.48 70L52.48 23.60Q53.36 23.36 55 23.12Q56.64 22.88 58.56 22.88L58.56 22.88Q62.56 22.88 64.32 24.20Q66.08 25.52 66.08 29.28L66.08 29.28L66.08 75.68Q65.20 75.92 63.56 76.16Q61.92 76.40 60 76.40ZM72.40 69.28L72.40 69.28Q72.40 65.92 74.48 63.68Q76.56 61.44 80.16 61.44L80.16 61.44Q83.76 61.44 85.84 63.68Q87.92 65.92 87.92 69.28L87.92 69.28Q87.92 72.64 85.84 74.88Q83.76 77.12 80.16 77.12L80.16 77.12Q76.56 77.12 74.48 74.88Q72.40 72.64 72.40 69.28Z" fill="#ffffff"></path></svg>